<mxfile host="app.diagrams.net" agent="Mozilla/5.0 (Windows NT 10.0; Win64; x64) AppleWebKit/537.36 (KHTML, like Gecko) Chrome/136.0.0.0 Safari/537.36" version="27.0.5">
  <diagram name="Page-1" id="WkENpaIAz4KM4MTKUci-">
    <mxGraphModel grid="1" page="1" gridSize="10" guides="1" tooltips="1" connect="1" arrows="1" fold="1" pageScale="1" pageWidth="850" pageHeight="1100" math="0" shadow="0">
      <root>
        <mxCell id="0" />
        <mxCell id="1" parent="0" />
        <mxCell id="4q0jaE6gVoMH41jViN08-1" value="Client Details" style="shape=cylinder3;whiteSpace=wrap;html=1;boundedLbl=1;backgroundOutline=1;size=15;" vertex="1" parent="1">
          <mxGeometry x="-910" y="930" width="100" height="80" as="geometry" />
        </mxCell>
        <mxCell id="4q0jaE6gVoMH41jViN08-2" value="Flight Details" style="shape=cylinder3;whiteSpace=wrap;html=1;boundedLbl=1;backgroundOutline=1;size=15;" vertex="1" parent="1">
          <mxGeometry x="-555" y="930" width="100" height="80" as="geometry" />
        </mxCell>
        <mxCell id="4q0jaE6gVoMH41jViN08-63" style="edgeStyle=orthogonalEdgeStyle;rounded=0;orthogonalLoop=1;jettySize=auto;html=1;exitX=1;exitY=0.5;exitDx=0;exitDy=0;exitPerimeter=0;entryX=0;entryY=0.5;entryDx=0;entryDy=0;" edge="1" parent="1" source="4q0jaE6gVoMH41jViN08-3" target="4q0jaE6gVoMH41jViN08-56">
          <mxGeometry relative="1" as="geometry" />
        </mxCell>
        <mxCell id="4q0jaE6gVoMH41jViN08-67" style="edgeStyle=orthogonalEdgeStyle;rounded=0;orthogonalLoop=1;jettySize=auto;html=1;exitX=1;exitY=0;exitDx=0;exitDy=27.5;exitPerimeter=0;entryX=0;entryY=0.5;entryDx=0;entryDy=0;" edge="1" parent="1" source="4q0jaE6gVoMH41jViN08-3" target="4q0jaE6gVoMH41jViN08-66">
          <mxGeometry relative="1" as="geometry" />
        </mxCell>
        <mxCell id="4q0jaE6gVoMH41jViN08-3" value="Booking Details" style="shape=cylinder3;whiteSpace=wrap;html=1;boundedLbl=1;backgroundOutline=1;size=15;" vertex="1" parent="1">
          <mxGeometry x="-200" y="930" width="100" height="80" as="geometry" />
        </mxCell>
        <mxCell id="4q0jaE6gVoMH41jViN08-4" value="Name" style="shape=parallelogram;perimeter=parallelogramPerimeter;whiteSpace=wrap;html=1;fixedSize=1;" vertex="1" parent="1">
          <mxGeometry x="-920" y="640" width="120" height="60" as="geometry" />
        </mxCell>
        <mxCell id="4q0jaE6gVoMH41jViN08-30" style="edgeStyle=orthogonalEdgeStyle;rounded=0;orthogonalLoop=1;jettySize=auto;html=1;exitX=1;exitY=0.25;exitDx=0;exitDy=0;entryX=0.25;entryY=0;entryDx=0;entryDy=0;" edge="1" parent="1" source="4q0jaE6gVoMH41jViN08-5" target="4q0jaE6gVoMH41jViN08-27">
          <mxGeometry relative="1" as="geometry">
            <Array as="points">
              <mxPoint x="-670" y="656" />
              <mxPoint x="-670" y="620" />
              <mxPoint x="-350" y="620" />
            </Array>
          </mxGeometry>
        </mxCell>
        <mxCell id="4q0jaE6gVoMH41jViN08-5" value="Age" style="shape=parallelogram;perimeter=parallelogramPerimeter;whiteSpace=wrap;html=1;fixedSize=1;" vertex="1" parent="1">
          <mxGeometry x="-800" y="640" width="120" height="60" as="geometry" />
        </mxCell>
        <mxCell id="4q0jaE6gVoMH41jViN08-7" value="Price&lt;span style=&quot;color: rgba(0, 0, 0, 0); font-family: monospace; font-size: 0px; text-align: start; text-wrap-mode: nowrap;&quot;&gt;%3CmxGraphModel%3E%3Croot%3E%3CmxCell%20id%3D%220%22%2F%3E%3CmxCell%20id%3D%221%22%20parent%3D%220%22%2F%3E%3CmxCell%20id%3D%222%22%20value%3D%22%22%20style%3D%22shape%3Dparallelogram%3Bperimeter%3DparallelogramPerimeter%3BwhiteSpace%3Dwrap%3Bhtml%3D1%3BfixedSize%3D1%3B%22%20vertex%3D%221%22%20parent%3D%221%22%3E%3CmxGeometry%20x%3D%22120%22%20y%3D%2280%22%20width%3D%22120%22%20height%3D%2260%22%20as%3D%22geometry%22%2F%3E%3C%2FmxCell%3E%3CmxCell%20id%3D%223%22%20value%3D%22%22%20style%3D%22shape%3Dparallelogram%3Bperimeter%3DparallelogramPerimeter%3BwhiteSpace%3Dwrap%3Bhtml%3D1%3BfixedSize%3D1%3B%22%20vertex%3D%221%22%20parent%3D%221%22%3E%3CmxGeometry%20x%3D%22255%22%20y%3D%2280%22%20width%3D%22120%22%20height%3D%2260%22%20as%3D%22geometry%22%2F%3E%3C%2FmxCell%3E%3C%2Froot%3E%3C%2FmxGraphModel%3E&lt;/span&gt;" style="shape=parallelogram;perimeter=parallelogramPerimeter;whiteSpace=wrap;html=1;fixedSize=1;" vertex="1" parent="1">
          <mxGeometry x="-220" y="740" width="120" height="60" as="geometry" />
        </mxCell>
        <mxCell id="4q0jaE6gVoMH41jViN08-26" style="edgeStyle=orthogonalEdgeStyle;rounded=0;orthogonalLoop=1;jettySize=auto;html=1;exitX=0;exitY=0.5;exitDx=0;exitDy=0;entryX=1;entryY=0.5;entryDx=0;entryDy=0;" edge="1" parent="1" source="4q0jaE6gVoMH41jViN08-9" target="4q0jaE6gVoMH41jViN08-25">
          <mxGeometry relative="1" as="geometry" />
        </mxCell>
        <mxCell id="4q0jaE6gVoMH41jViN08-9" value="Available Seats" style="shape=parallelogram;perimeter=parallelogramPerimeter;whiteSpace=wrap;html=1;fixedSize=1;" vertex="1" parent="1">
          <mxGeometry x="-387" y="740" width="120" height="60" as="geometry" />
        </mxCell>
        <mxCell id="4q0jaE6gVoMH41jViN08-14" style="edgeStyle=orthogonalEdgeStyle;rounded=0;orthogonalLoop=1;jettySize=auto;html=1;exitX=0.75;exitY=0;exitDx=0;exitDy=0;entryX=0.25;entryY=1;entryDx=0;entryDy=0;" edge="1" parent="1" source="4q0jaE6gVoMH41jViN08-10" target="4q0jaE6gVoMH41jViN08-13">
          <mxGeometry relative="1" as="geometry" />
        </mxCell>
        <mxCell id="4q0jaE6gVoMH41jViN08-10" value="Origin" style="shape=parallelogram;perimeter=parallelogramPerimeter;whiteSpace=wrap;html=1;fixedSize=1;" vertex="1" parent="1">
          <mxGeometry x="-400" y="1200" width="120" height="60" as="geometry" />
        </mxCell>
        <mxCell id="4q0jaE6gVoMH41jViN08-15" style="edgeStyle=orthogonalEdgeStyle;rounded=0;orthogonalLoop=1;jettySize=auto;html=1;exitX=0.5;exitY=0;exitDx=0;exitDy=0;entryX=0.75;entryY=1;entryDx=0;entryDy=0;" edge="1" parent="1" source="4q0jaE6gVoMH41jViN08-11" target="4q0jaE6gVoMH41jViN08-13">
          <mxGeometry relative="1" as="geometry" />
        </mxCell>
        <mxCell id="4q0jaE6gVoMH41jViN08-11" value="Destination" style="shape=parallelogram;perimeter=parallelogramPerimeter;whiteSpace=wrap;html=1;fixedSize=1;" vertex="1" parent="1">
          <mxGeometry x="-275" y="1200" width="120" height="60" as="geometry" />
        </mxCell>
        <mxCell id="4q0jaE6gVoMH41jViN08-12" value="Generate Flight Number" style="rounded=0;whiteSpace=wrap;html=1;" vertex="1" parent="1">
          <mxGeometry x="-625" y="1050" width="120" height="60" as="geometry" />
        </mxCell>
        <mxCell id="4q0jaE6gVoMH41jViN08-18" style="edgeStyle=orthogonalEdgeStyle;rounded=0;orthogonalLoop=1;jettySize=auto;html=1;exitX=0.75;exitY=0;exitDx=0;exitDy=0;entryX=0;entryY=0.5;entryDx=0;entryDy=0;" edge="1" parent="1" source="4q0jaE6gVoMH41jViN08-13" target="4q0jaE6gVoMH41jViN08-7">
          <mxGeometry relative="1" as="geometry">
            <Array as="points">
              <mxPoint x="-247" y="1030" />
              <mxPoint x="-260" y="1030" />
              <mxPoint x="-260" y="770" />
            </Array>
          </mxGeometry>
        </mxCell>
        <mxCell id="4q0jaE6gVoMH41jViN08-45" style="edgeStyle=orthogonalEdgeStyle;rounded=0;orthogonalLoop=1;jettySize=auto;html=1;exitX=0.25;exitY=0;exitDx=0;exitDy=0;entryX=0.75;entryY=1;entryDx=0;entryDy=0;" edge="1" parent="1" source="4q0jaE6gVoMH41jViN08-13" target="4q0jaE6gVoMH41jViN08-25">
          <mxGeometry relative="1" as="geometry">
            <Array as="points">
              <mxPoint x="-307" y="880" />
              <mxPoint x="-450" y="880" />
            </Array>
          </mxGeometry>
        </mxCell>
        <mxCell id="4q0jaE6gVoMH41jViN08-13" value="Determine Route" style="rounded=0;whiteSpace=wrap;html=1;" vertex="1" parent="1">
          <mxGeometry x="-337.5" y="1070" width="120" height="60" as="geometry" />
        </mxCell>
        <mxCell id="4q0jaE6gVoMH41jViN08-16" style="edgeStyle=orthogonalEdgeStyle;rounded=0;orthogonalLoop=1;jettySize=auto;html=1;exitX=0.5;exitY=0;exitDx=0;exitDy=0;entryX=0.855;entryY=1;entryDx=0;entryDy=-4.35;entryPerimeter=0;" edge="1" parent="1" source="4q0jaE6gVoMH41jViN08-13" target="4q0jaE6gVoMH41jViN08-2">
          <mxGeometry relative="1" as="geometry" />
        </mxCell>
        <mxCell id="4q0jaE6gVoMH41jViN08-17" style="edgeStyle=orthogonalEdgeStyle;rounded=0;orthogonalLoop=1;jettySize=auto;html=1;exitX=0.25;exitY=1;exitDx=0;exitDy=0;entryX=1;entryY=1;entryDx=0;entryDy=-15;entryPerimeter=0;" edge="1" parent="1" source="4q0jaE6gVoMH41jViN08-9" target="4q0jaE6gVoMH41jViN08-2">
          <mxGeometry relative="1" as="geometry" />
        </mxCell>
        <mxCell id="4q0jaE6gVoMH41jViN08-20" style="edgeStyle=orthogonalEdgeStyle;rounded=0;orthogonalLoop=1;jettySize=auto;html=1;exitX=0.5;exitY=1;exitDx=0;exitDy=0;entryX=0.5;entryY=0;entryDx=0;entryDy=0;entryPerimeter=0;" edge="1" parent="1" source="4q0jaE6gVoMH41jViN08-7" target="4q0jaE6gVoMH41jViN08-3">
          <mxGeometry relative="1" as="geometry" />
        </mxCell>
        <mxCell id="4q0jaE6gVoMH41jViN08-21" style="edgeStyle=orthogonalEdgeStyle;rounded=0;orthogonalLoop=1;jettySize=auto;html=1;exitX=0;exitY=1;exitDx=0;exitDy=0;entryX=0.145;entryY=0;entryDx=0;entryDy=4.35;entryPerimeter=0;" edge="1" parent="1" source="4q0jaE6gVoMH41jViN08-4" target="4q0jaE6gVoMH41jViN08-1">
          <mxGeometry relative="1" as="geometry" />
        </mxCell>
        <mxCell id="4q0jaE6gVoMH41jViN08-22" style="edgeStyle=orthogonalEdgeStyle;rounded=0;orthogonalLoop=1;jettySize=auto;html=1;exitX=0.25;exitY=1;exitDx=0;exitDy=0;entryX=0.5;entryY=0;entryDx=0;entryDy=0;entryPerimeter=0;" edge="1" parent="1" source="4q0jaE6gVoMH41jViN08-5" target="4q0jaE6gVoMH41jViN08-1">
          <mxGeometry relative="1" as="geometry">
            <Array as="points">
              <mxPoint x="-770" y="730" />
              <mxPoint x="-860" y="730" />
            </Array>
          </mxGeometry>
        </mxCell>
        <mxCell id="4q0jaE6gVoMH41jViN08-23" style="edgeStyle=orthogonalEdgeStyle;rounded=0;orthogonalLoop=1;jettySize=auto;html=1;exitX=0.75;exitY=0;exitDx=0;exitDy=0;entryX=0.5;entryY=1;entryDx=0;entryDy=0;entryPerimeter=0;" edge="1" parent="1" source="4q0jaE6gVoMH41jViN08-12" target="4q0jaE6gVoMH41jViN08-2">
          <mxGeometry relative="1" as="geometry" />
        </mxCell>
        <mxCell id="4q0jaE6gVoMH41jViN08-28" style="edgeStyle=orthogonalEdgeStyle;rounded=0;orthogonalLoop=1;jettySize=auto;html=1;exitX=0.75;exitY=0;exitDx=0;exitDy=0;entryX=0;entryY=0.5;entryDx=0;entryDy=0;" edge="1" parent="1" source="4q0jaE6gVoMH41jViN08-25" target="4q0jaE6gVoMH41jViN08-27">
          <mxGeometry relative="1" as="geometry" />
        </mxCell>
        <mxCell id="4q0jaE6gVoMH41jViN08-25" value="Compare with Total Seats (subtraction)" style="rounded=0;whiteSpace=wrap;html=1;" vertex="1" parent="1">
          <mxGeometry x="-540" y="740" width="120" height="60" as="geometry" />
        </mxCell>
        <mxCell id="4q0jaE6gVoMH41jViN08-27" value="Calculate Discount" style="rounded=0;whiteSpace=wrap;html=1;" vertex="1" parent="1">
          <mxGeometry x="-380" y="640" width="120" height="60" as="geometry" />
        </mxCell>
        <mxCell id="4q0jaE6gVoMH41jViN08-29" style="edgeStyle=orthogonalEdgeStyle;rounded=0;orthogonalLoop=1;jettySize=auto;html=1;exitX=1;exitY=0.5;exitDx=0;exitDy=0;entryX=0.855;entryY=0;entryDx=0;entryDy=4.35;entryPerimeter=0;" edge="1" parent="1" source="4q0jaE6gVoMH41jViN08-27" target="4q0jaE6gVoMH41jViN08-3">
          <mxGeometry relative="1" as="geometry">
            <Array as="points">
              <mxPoint x="-90" y="670" />
              <mxPoint x="-90" y="810" />
              <mxPoint x="-114" y="810" />
            </Array>
          </mxGeometry>
        </mxCell>
        <mxCell id="4q0jaE6gVoMH41jViN08-34" style="edgeStyle=orthogonalEdgeStyle;rounded=0;orthogonalLoop=1;jettySize=auto;html=1;exitX=0.75;exitY=0;exitDx=0;exitDy=0;entryX=0.5;entryY=1;entryDx=0;entryDy=0;" edge="1" parent="1" source="4q0jaE6gVoMH41jViN08-33" target="4q0jaE6gVoMH41jViN08-5">
          <mxGeometry relative="1" as="geometry" />
        </mxCell>
        <mxCell id="4q0jaE6gVoMH41jViN08-35" style="edgeStyle=orthogonalEdgeStyle;rounded=0;orthogonalLoop=1;jettySize=auto;html=1;exitX=0;exitY=0.25;exitDx=0;exitDy=0;entryX=0;entryY=0.5;entryDx=0;entryDy=0;" edge="1" parent="1" source="4q0jaE6gVoMH41jViN08-33" target="4q0jaE6gVoMH41jViN08-4">
          <mxGeometry relative="1" as="geometry">
            <Array as="points">
              <mxPoint x="-970" y="1085" />
              <mxPoint x="-970" y="670" />
            </Array>
          </mxGeometry>
        </mxCell>
        <mxCell id="4q0jaE6gVoMH41jViN08-36" style="edgeStyle=orthogonalEdgeStyle;rounded=0;orthogonalLoop=1;jettySize=auto;html=1;exitX=1;exitY=0.25;exitDx=0;exitDy=0;entryX=0.5;entryY=1;entryDx=0;entryDy=0;" edge="1" parent="1" source="4q0jaE6gVoMH41jViN08-33" target="4q0jaE6gVoMH41jViN08-9">
          <mxGeometry relative="1" as="geometry">
            <Array as="points">
              <mxPoint x="-640" y="1085" />
              <mxPoint x="-640" y="860" />
              <mxPoint x="-327" y="860" />
            </Array>
          </mxGeometry>
        </mxCell>
        <mxCell id="4q0jaE6gVoMH41jViN08-38" style="edgeStyle=orthogonalEdgeStyle;rounded=0;orthogonalLoop=1;jettySize=auto;html=1;exitX=1;exitY=0.5;exitDx=0;exitDy=0;entryX=0.5;entryY=1;entryDx=0;entryDy=0;" edge="1" parent="1" source="4q0jaE6gVoMH41jViN08-33" target="4q0jaE6gVoMH41jViN08-11">
          <mxGeometry relative="1" as="geometry">
            <Array as="points">
              <mxPoint x="-660" y="1100" />
              <mxPoint x="-660" y="1310" />
              <mxPoint x="-215" y="1310" />
            </Array>
          </mxGeometry>
        </mxCell>
        <mxCell id="4q0jaE6gVoMH41jViN08-39" style="edgeStyle=orthogonalEdgeStyle;rounded=0;orthogonalLoop=1;jettySize=auto;html=1;exitX=1;exitY=0.75;exitDx=0;exitDy=0;entryX=0.5;entryY=1;entryDx=0;entryDy=0;" edge="1" parent="1" source="4q0jaE6gVoMH41jViN08-33" target="4q0jaE6gVoMH41jViN08-10">
          <mxGeometry relative="1" as="geometry">
            <Array as="points">
              <mxPoint x="-680" y="1115" />
              <mxPoint x="-680" y="1280" />
              <mxPoint x="-340" y="1280" />
            </Array>
          </mxGeometry>
        </mxCell>
        <mxCell id="4q0jaE6gVoMH41jViN08-47" style="edgeStyle=orthogonalEdgeStyle;rounded=0;orthogonalLoop=1;jettySize=auto;html=1;exitX=0.5;exitY=0;exitDx=0;exitDy=0;entryX=0.25;entryY=1;entryDx=0;entryDy=0;" edge="1" parent="1" source="4q0jaE6gVoMH41jViN08-33" target="4q0jaE6gVoMH41jViN08-46">
          <mxGeometry relative="1" as="geometry" />
        </mxCell>
        <mxCell id="4q0jaE6gVoMH41jViN08-33" value="Get Info from User" style="rounded=0;whiteSpace=wrap;html=1;" vertex="1" parent="1">
          <mxGeometry x="-860" y="1070" width="120" height="60" as="geometry" />
        </mxCell>
        <mxCell id="4q0jaE6gVoMH41jViN08-40" value="" style="shape=flexArrow;endArrow=classic;html=1;rounded=0;width=10;endSize=5.24;" edge="1" parent="1">
          <mxGeometry width="50" height="50" relative="1" as="geometry">
            <mxPoint x="-610" y="1110" as="sourcePoint" />
            <mxPoint x="-600" y="1150" as="targetPoint" />
          </mxGeometry>
        </mxCell>
        <mxCell id="4q0jaE6gVoMH41jViN08-42" value="WA&lt;i&gt;[Random 100-300 value]&lt;/i&gt;" style="rounded=0;whiteSpace=wrap;html=1;" vertex="1" parent="1">
          <mxGeometry x="-625" y="1150" width="165" height="60" as="geometry" />
        </mxCell>
        <mxCell id="4q0jaE6gVoMH41jViN08-43" value="[Origin], [Destination]&lt;div&gt;Reference route dictionary for price and total seats.&lt;/div&gt;" style="rounded=0;whiteSpace=wrap;html=1;" vertex="1" parent="1">
          <mxGeometry x="-140" y="1070" width="150" height="60" as="geometry" />
        </mxCell>
        <mxCell id="4q0jaE6gVoMH41jViN08-44" value="" style="shape=flexArrow;endArrow=classic;html=1;rounded=0;entryX=0;entryY=0.5;entryDx=0;entryDy=0;" edge="1" parent="1" target="4q0jaE6gVoMH41jViN08-43">
          <mxGeometry width="50" height="50" relative="1" as="geometry">
            <mxPoint x="-217.5" y="1099.5" as="sourcePoint" />
            <mxPoint x="-167.5" y="1099.5" as="targetPoint" />
          </mxGeometry>
        </mxCell>
        <mxCell id="4q0jaE6gVoMH41jViN08-46" value="Flight Date" style="shape=parallelogram;perimeter=parallelogramPerimeter;whiteSpace=wrap;html=1;fixedSize=1;" vertex="1" parent="1">
          <mxGeometry x="-700" y="740" width="120" height="60" as="geometry" />
        </mxCell>
        <mxCell id="4q0jaE6gVoMH41jViN08-48" style="edgeStyle=orthogonalEdgeStyle;rounded=0;orthogonalLoop=1;jettySize=auto;html=1;entryX=0.5;entryY=0;entryDx=0;entryDy=0;entryPerimeter=0;" edge="1" parent="1" target="4q0jaE6gVoMH41jViN08-2">
          <mxGeometry relative="1" as="geometry">
            <mxPoint x="-620" y="800" as="sourcePoint" />
            <Array as="points">
              <mxPoint x="-620" y="880" />
              <mxPoint x="-505" y="880" />
            </Array>
          </mxGeometry>
        </mxCell>
        <mxCell id="4q0jaE6gVoMH41jViN08-51" style="edgeStyle=orthogonalEdgeStyle;rounded=0;orthogonalLoop=1;jettySize=auto;html=1;exitX=0.5;exitY=1;exitDx=0;exitDy=0;entryX=0.5;entryY=0;entryDx=0;entryDy=0;" edge="1" parent="1" source="4q0jaE6gVoMH41jViN08-49" target="4q0jaE6gVoMH41jViN08-50">
          <mxGeometry relative="1" as="geometry" />
        </mxCell>
        <mxCell id="4q0jaE6gVoMH41jViN08-49" value="Start Program" style="rounded=1;whiteSpace=wrap;html=1;arcSize=50;" vertex="1" parent="1">
          <mxGeometry x="-480" y="210" width="150" height="60" as="geometry" />
        </mxCell>
        <mxCell id="4q0jaE6gVoMH41jViN08-53" style="edgeStyle=orthogonalEdgeStyle;rounded=0;orthogonalLoop=1;jettySize=auto;html=1;exitX=0.5;exitY=1;exitDx=0;exitDy=0;entryX=0.5;entryY=0;entryDx=0;entryDy=0;" edge="1" parent="1" source="4q0jaE6gVoMH41jViN08-50" target="4q0jaE6gVoMH41jViN08-52">
          <mxGeometry relative="1" as="geometry" />
        </mxCell>
        <mxCell id="4q0jaE6gVoMH41jViN08-50" value="Ask User What they Want to Do" style="rounded=0;whiteSpace=wrap;html=1;" vertex="1" parent="1">
          <mxGeometry x="-465" y="310" width="120" height="60" as="geometry" />
        </mxCell>
        <mxCell id="4q0jaE6gVoMH41jViN08-54" style="edgeStyle=orthogonalEdgeStyle;rounded=0;orthogonalLoop=1;jettySize=auto;html=1;exitX=1;exitY=1;exitDx=0;exitDy=0;entryX=0.5;entryY=1;entryDx=0;entryDy=0;" edge="1" parent="1" source="4q0jaE6gVoMH41jViN08-52" target="4q0jaE6gVoMH41jViN08-33">
          <mxGeometry relative="1" as="geometry">
            <Array as="points">
              <mxPoint x="-379" y="560" />
              <mxPoint x="200" y="560" />
              <mxPoint x="200" y="1360" />
              <mxPoint x="-800" y="1360" />
            </Array>
          </mxGeometry>
        </mxCell>
        <mxCell id="4q0jaE6gVoMH41jViN08-55" value="Log Client Data" style="edgeLabel;html=1;align=center;verticalAlign=middle;resizable=0;points=[];" vertex="1" connectable="0" parent="4q0jaE6gVoMH41jViN08-54">
          <mxGeometry x="-0.4366" y="3" relative="1" as="geometry">
            <mxPoint x="-693" y="-28" as="offset" />
          </mxGeometry>
        </mxCell>
        <mxCell id="4q0jaE6gVoMH41jViN08-70" style="edgeStyle=orthogonalEdgeStyle;rounded=0;orthogonalLoop=1;jettySize=auto;html=1;exitX=1;exitY=0;exitDx=0;exitDy=0;entryX=0.5;entryY=0;entryDx=0;entryDy=0;" edge="1" parent="1" source="4q0jaE6gVoMH41jViN08-52" target="4q0jaE6gVoMH41jViN08-76">
          <mxGeometry relative="1" as="geometry">
            <Array as="points">
              <mxPoint x="-320" y="420" />
              <mxPoint x="-320" y="-30" />
              <mxPoint x="-230" y="-30" />
            </Array>
          </mxGeometry>
        </mxCell>
        <mxCell id="4q0jaE6gVoMH41jViN08-71" value="Display Client Data" style="edgeLabel;html=1;align=center;verticalAlign=middle;resizable=0;points=[];" vertex="1" connectable="0" parent="4q0jaE6gVoMH41jViN08-70">
          <mxGeometry x="-0.28" y="2" relative="1" as="geometry">
            <mxPoint y="-230" as="offset" />
          </mxGeometry>
        </mxCell>
        <mxCell id="4q0jaE6gVoMH41jViN08-88" style="edgeStyle=orthogonalEdgeStyle;rounded=0;orthogonalLoop=1;jettySize=auto;html=1;exitX=0;exitY=0.5;exitDx=0;exitDy=0;entryX=1;entryY=0.5;entryDx=0;entryDy=0;" edge="1" parent="1" source="4q0jaE6gVoMH41jViN08-52" target="4q0jaE6gVoMH41jViN08-89">
          <mxGeometry relative="1" as="geometry">
            <mxPoint x="-600" y="439.52941176470586" as="targetPoint" />
          </mxGeometry>
        </mxCell>
        <mxCell id="4q0jaE6gVoMH41jViN08-90" value="Manage Client Data" style="edgeLabel;html=1;align=center;verticalAlign=middle;resizable=0;points=[];" vertex="1" connectable="0" parent="4q0jaE6gVoMH41jViN08-88">
          <mxGeometry x="0.1876" y="5" relative="1" as="geometry">
            <mxPoint x="22" y="-5" as="offset" />
          </mxGeometry>
        </mxCell>
        <mxCell id="4q0jaE6gVoMH41jViN08-52" value="Split Program" style="rhombus;whiteSpace=wrap;html=1;" vertex="1" parent="1">
          <mxGeometry x="-457.5" y="400" width="105" height="80" as="geometry" />
        </mxCell>
        <mxCell id="4q0jaE6gVoMH41jViN08-65" style="edgeStyle=orthogonalEdgeStyle;rounded=0;orthogonalLoop=1;jettySize=auto;html=1;exitX=0.75;exitY=1;exitDx=0;exitDy=0;entryX=0.25;entryY=0;entryDx=0;entryDy=0;" edge="1" parent="1" source="4q0jaE6gVoMH41jViN08-56" target="4q0jaE6gVoMH41jViN08-64">
          <mxGeometry relative="1" as="geometry" />
        </mxCell>
        <mxCell id="4q0jaE6gVoMH41jViN08-56" value="Create Email" style="rounded=0;whiteSpace=wrap;html=1;" vertex="1" parent="1">
          <mxGeometry x="30" y="940" width="120" height="60" as="geometry" />
        </mxCell>
        <mxCell id="4q0jaE6gVoMH41jViN08-60" value="Read csv file" style="rounded=0;whiteSpace=wrap;html=1;" vertex="1" parent="1">
          <mxGeometry x="-290" y="135" width="120" height="60" as="geometry" />
        </mxCell>
        <mxCell id="4q0jaE6gVoMH41jViN08-61" style="edgeStyle=orthogonalEdgeStyle;rounded=0;orthogonalLoop=1;jettySize=auto;html=1;exitX=1;exitY=0;exitDx=0;exitDy=27.5;exitPerimeter=0;entryX=0.145;entryY=0;entryDx=0;entryDy=4.35;entryPerimeter=0;" edge="1" parent="1" source="4q0jaE6gVoMH41jViN08-1" target="4q0jaE6gVoMH41jViN08-3">
          <mxGeometry relative="1" as="geometry">
            <Array as="points">
              <mxPoint x="-660" y="958" />
              <mxPoint x="-660" y="900" />
              <mxPoint x="-186" y="900" />
            </Array>
          </mxGeometry>
        </mxCell>
        <mxCell id="4q0jaE6gVoMH41jViN08-62" style="edgeStyle=orthogonalEdgeStyle;rounded=0;orthogonalLoop=1;jettySize=auto;html=1;exitX=1;exitY=0.5;exitDx=0;exitDy=0;exitPerimeter=0;entryX=0;entryY=0.5;entryDx=0;entryDy=0;entryPerimeter=0;" edge="1" parent="1" source="4q0jaE6gVoMH41jViN08-2" target="4q0jaE6gVoMH41jViN08-3">
          <mxGeometry relative="1" as="geometry" />
        </mxCell>
        <mxCell id="4q0jaE6gVoMH41jViN08-64" value="Display Email" style="shape=parallelogram;perimeter=parallelogramPerimeter;whiteSpace=wrap;html=1;fixedSize=1;" vertex="1" parent="1">
          <mxGeometry x="30" y="1040" width="120" height="60" as="geometry" />
        </mxCell>
        <mxCell id="4q0jaE6gVoMH41jViN08-69" style="edgeStyle=orthogonalEdgeStyle;rounded=0;orthogonalLoop=1;jettySize=auto;html=1;exitX=0.5;exitY=0;exitDx=0;exitDy=0;entryX=0;entryY=0.75;entryDx=0;entryDy=0;" edge="1" parent="1" source="4q0jaE6gVoMH41jViN08-66" target="4q0jaE6gVoMH41jViN08-68">
          <mxGeometry relative="1" as="geometry">
            <Array as="points">
              <mxPoint x="90" y="830" />
              <mxPoint x="10" y="830" />
              <mxPoint x="10" y="790" />
            </Array>
          </mxGeometry>
        </mxCell>
        <mxCell id="4q0jaE6gVoMH41jViN08-66" value="Log Data to CSV file" style="rounded=0;whiteSpace=wrap;html=1;" vertex="1" parent="1">
          <mxGeometry x="30" y="860" width="120" height="60" as="geometry" />
        </mxCell>
        <mxCell id="4q0jaE6gVoMH41jViN08-68" value="clients.csv" style="shape=document;whiteSpace=wrap;html=1;boundedLbl=1;" vertex="1" parent="1">
          <mxGeometry x="30" y="730" width="120" height="80" as="geometry" />
        </mxCell>
        <mxCell id="4q0jaE6gVoMH41jViN08-75" style="edgeStyle=orthogonalEdgeStyle;rounded=0;orthogonalLoop=1;jettySize=auto;html=1;exitX=0;exitY=0.5;exitDx=0;exitDy=0;entryX=1;entryY=0.75;entryDx=0;entryDy=0;" edge="1" parent="1" source="4q0jaE6gVoMH41jViN08-73" target="4q0jaE6gVoMH41jViN08-60">
          <mxGeometry relative="1" as="geometry">
            <Array as="points">
              <mxPoint x="-75" y="180" />
            </Array>
          </mxGeometry>
        </mxCell>
        <mxCell id="4q0jaE6gVoMH41jViN08-73" value="clients.csv" style="shape=document;whiteSpace=wrap;html=1;boundedLbl=1;" vertex="1" parent="1">
          <mxGeometry x="-75" y="135" width="120" height="80" as="geometry" />
        </mxCell>
        <mxCell id="4q0jaE6gVoMH41jViN08-74" style="edgeStyle=orthogonalEdgeStyle;rounded=0;orthogonalLoop=1;jettySize=auto;html=1;exitX=1;exitY=0.5;exitDx=0;exitDy=0;entryX=-0.003;entryY=0.362;entryDx=0;entryDy=0;entryPerimeter=0;" edge="1" parent="1" source="4q0jaE6gVoMH41jViN08-60" target="4q0jaE6gVoMH41jViN08-73">
          <mxGeometry relative="1" as="geometry" />
        </mxCell>
        <mxCell id="4q0jaE6gVoMH41jViN08-79" style="edgeStyle=orthogonalEdgeStyle;rounded=0;orthogonalLoop=1;jettySize=auto;html=1;exitX=1;exitY=0.5;exitDx=0;exitDy=0;entryX=0;entryY=0.5;entryDx=0;entryDy=0;" edge="1" parent="1" source="4q0jaE6gVoMH41jViN08-76" target="4q0jaE6gVoMH41jViN08-78">
          <mxGeometry relative="1" as="geometry" />
        </mxCell>
        <mxCell id="4q0jaE6gVoMH41jViN08-80" style="edgeStyle=orthogonalEdgeStyle;rounded=0;orthogonalLoop=1;jettySize=auto;html=1;exitX=0.5;exitY=1;exitDx=0;exitDy=0;entryX=0.5;entryY=0;entryDx=0;entryDy=0;" edge="1" parent="1" source="4q0jaE6gVoMH41jViN08-76" target="4q0jaE6gVoMH41jViN08-60">
          <mxGeometry relative="1" as="geometry" />
        </mxCell>
        <mxCell id="4q0jaE6gVoMH41jViN08-76" value="Ask which client&#39;s information required" style="rounded=0;whiteSpace=wrap;html=1;" vertex="1" parent="1">
          <mxGeometry x="-290" y="35" width="120" height="60" as="geometry" />
        </mxCell>
        <mxCell id="4q0jaE6gVoMH41jViN08-81" style="edgeStyle=orthogonalEdgeStyle;rounded=0;orthogonalLoop=1;jettySize=auto;html=1;exitX=0.5;exitY=1;exitDx=0;exitDy=0;entryX=0.5;entryY=0;entryDx=0;entryDy=0;" edge="1" parent="1" source="4q0jaE6gVoMH41jViN08-78" target="4q0jaE6gVoMH41jViN08-73">
          <mxGeometry relative="1" as="geometry" />
        </mxCell>
        <mxCell id="4q0jaE6gVoMH41jViN08-78" value="Client Name" style="shape=parallelogram;perimeter=parallelogramPerimeter;whiteSpace=wrap;html=1;fixedSize=1;" vertex="1" parent="1">
          <mxGeometry x="-75" y="35" width="120" height="60" as="geometry" />
        </mxCell>
        <mxCell id="4q0jaE6gVoMH41jViN08-86" style="edgeStyle=orthogonalEdgeStyle;rounded=0;orthogonalLoop=1;jettySize=auto;html=1;exitX=1;exitY=0.5;exitDx=0;exitDy=0;exitPerimeter=0;entryX=0;entryY=0.5;entryDx=0;entryDy=0;" edge="1" parent="1" source="4q0jaE6gVoMH41jViN08-84" target="4q0jaE6gVoMH41jViN08-87">
          <mxGeometry relative="1" as="geometry">
            <mxPoint x="-85" y="285.11764705882365" as="targetPoint" />
          </mxGeometry>
        </mxCell>
        <mxCell id="4q0jaE6gVoMH41jViN08-84" value="Booking Details" style="shape=cylinder3;whiteSpace=wrap;html=1;boundedLbl=1;backgroundOutline=1;size=15;" vertex="1" parent="1">
          <mxGeometry x="-280" y="245" width="100" height="80" as="geometry" />
        </mxCell>
        <mxCell id="4q0jaE6gVoMH41jViN08-85" style="edgeStyle=orthogonalEdgeStyle;rounded=0;orthogonalLoop=1;jettySize=auto;html=1;exitX=0.5;exitY=1;exitDx=0;exitDy=0;entryX=0.5;entryY=0;entryDx=0;entryDy=0;entryPerimeter=0;" edge="1" parent="1" source="4q0jaE6gVoMH41jViN08-60" target="4q0jaE6gVoMH41jViN08-84">
          <mxGeometry relative="1" as="geometry" />
        </mxCell>
        <mxCell id="4q0jaE6gVoMH41jViN08-87" value="Display info &amp;amp; Regenerate Email" style="rounded=0;whiteSpace=wrap;html=1;" vertex="1" parent="1">
          <mxGeometry x="-75" y="255" width="120" height="60" as="geometry" />
        </mxCell>
        <mxCell id="4q0jaE6gVoMH41jViN08-92" style="edgeStyle=orthogonalEdgeStyle;rounded=0;orthogonalLoop=1;jettySize=auto;html=1;exitX=0.5;exitY=0;exitDx=0;exitDy=0;entryX=0.5;entryY=0;entryDx=0;entryDy=0;" edge="1" parent="1" source="4q0jaE6gVoMH41jViN08-89" target="4q0jaE6gVoMH41jViN08-91">
          <mxGeometry relative="1" as="geometry" />
        </mxCell>
        <mxCell id="4q0jaE6gVoMH41jViN08-89" value="Ask user if they want to remove individual client or whole file." style="rounded=0;whiteSpace=wrap;html=1;" vertex="1" parent="1">
          <mxGeometry x="-690" y="-60" width="120" height="60" as="geometry" />
        </mxCell>
        <mxCell id="4q0jaE6gVoMH41jViN08-94" style="edgeStyle=orthogonalEdgeStyle;rounded=0;orthogonalLoop=1;jettySize=auto;html=1;exitX=1;exitY=1;exitDx=0;exitDy=0;entryX=0.5;entryY=0;entryDx=0;entryDy=0;" edge="1" parent="1" source="4q0jaE6gVoMH41jViN08-91" target="4q0jaE6gVoMH41jViN08-93">
          <mxGeometry relative="1" as="geometry">
            <Array as="points">
              <mxPoint x="-700" y="-10" />
              <mxPoint x="-700" y="40" />
              <mxPoint x="-630" y="40" />
            </Array>
          </mxGeometry>
        </mxCell>
        <mxCell id="4q0jaE6gVoMH41jViN08-96" style="edgeStyle=orthogonalEdgeStyle;rounded=0;orthogonalLoop=1;jettySize=auto;html=1;exitX=0;exitY=1;exitDx=0;exitDy=0;entryX=0.5;entryY=0;entryDx=0;entryDy=0;" edge="1" parent="1" source="4q0jaE6gVoMH41jViN08-91" target="4q0jaE6gVoMH41jViN08-95">
          <mxGeometry relative="1" as="geometry" />
        </mxCell>
        <mxCell id="4q0jaE6gVoMH41jViN08-91" value="Identify Decision" style="rhombus;whiteSpace=wrap;html=1;" vertex="1" parent="1">
          <mxGeometry x="-800" y="-70" width="80" height="80" as="geometry" />
        </mxCell>
        <mxCell id="4q0jaE6gVoMH41jViN08-93" value="Delete whole File" style="rounded=0;whiteSpace=wrap;html=1;" vertex="1" parent="1">
          <mxGeometry x="-690" y="60" width="120" height="60" as="geometry" />
        </mxCell>
        <mxCell id="4q0jaE6gVoMH41jViN08-106" style="edgeStyle=orthogonalEdgeStyle;rounded=0;orthogonalLoop=1;jettySize=auto;html=1;exitX=0.5;exitY=1;exitDx=0;exitDy=0;entryX=0.5;entryY=0;entryDx=0;entryDy=0;" edge="1" parent="1" source="4q0jaE6gVoMH41jViN08-95" target="4q0jaE6gVoMH41jViN08-103">
          <mxGeometry relative="1" as="geometry" />
        </mxCell>
        <mxCell id="4q0jaE6gVoMH41jViN08-95" value="Delete Individual Client" style="rounded=0;whiteSpace=wrap;html=1;" vertex="1" parent="1">
          <mxGeometry x="-860" y="60" width="120" height="60" as="geometry" />
        </mxCell>
        <mxCell id="4q0jaE6gVoMH41jViN08-108" style="edgeStyle=orthogonalEdgeStyle;rounded=0;orthogonalLoop=1;jettySize=auto;html=1;exitX=0.5;exitY=1;exitDx=0;exitDy=0;entryX=0.5;entryY=0;entryDx=0;entryDy=0;" edge="1" parent="1" source="4q0jaE6gVoMH41jViN08-97" target="4q0jaE6gVoMH41jViN08-107">
          <mxGeometry relative="1" as="geometry" />
        </mxCell>
        <mxCell id="4q0jaE6gVoMH41jViN08-97" value="Read csv file" style="rounded=0;whiteSpace=wrap;html=1;" vertex="1" parent="1">
          <mxGeometry x="-860" y="250" width="120" height="60" as="geometry" />
        </mxCell>
        <mxCell id="4q0jaE6gVoMH41jViN08-98" style="edgeStyle=orthogonalEdgeStyle;rounded=0;orthogonalLoop=1;jettySize=auto;html=1;exitX=0;exitY=0.5;exitDx=0;exitDy=0;entryX=1;entryY=0.75;entryDx=0;entryDy=0;" edge="1" parent="1" source="4q0jaE6gVoMH41jViN08-99" target="4q0jaE6gVoMH41jViN08-97">
          <mxGeometry relative="1" as="geometry">
            <Array as="points">
              <mxPoint x="-645" y="295" />
            </Array>
          </mxGeometry>
        </mxCell>
        <mxCell id="4q0jaE6gVoMH41jViN08-99" value="clients.csv" style="shape=document;whiteSpace=wrap;html=1;boundedLbl=1;" vertex="1" parent="1">
          <mxGeometry x="-690" y="240" width="120" height="80" as="geometry" />
        </mxCell>
        <mxCell id="4q0jaE6gVoMH41jViN08-100" style="edgeStyle=orthogonalEdgeStyle;rounded=0;orthogonalLoop=1;jettySize=auto;html=1;exitX=1;exitY=0.5;exitDx=0;exitDy=0;entryX=-0.003;entryY=0.362;entryDx=0;entryDy=0;entryPerimeter=0;" edge="1" parent="1" source="4q0jaE6gVoMH41jViN08-97" target="4q0jaE6gVoMH41jViN08-99">
          <mxGeometry relative="1" as="geometry" />
        </mxCell>
        <mxCell id="4q0jaE6gVoMH41jViN08-101" style="edgeStyle=orthogonalEdgeStyle;rounded=0;orthogonalLoop=1;jettySize=auto;html=1;exitX=1;exitY=0.5;exitDx=0;exitDy=0;entryX=0;entryY=0.5;entryDx=0;entryDy=0;" edge="1" parent="1" source="4q0jaE6gVoMH41jViN08-103" target="4q0jaE6gVoMH41jViN08-105">
          <mxGeometry relative="1" as="geometry" />
        </mxCell>
        <mxCell id="4q0jaE6gVoMH41jViN08-102" style="edgeStyle=orthogonalEdgeStyle;rounded=0;orthogonalLoop=1;jettySize=auto;html=1;exitX=0.5;exitY=1;exitDx=0;exitDy=0;entryX=0.5;entryY=0;entryDx=0;entryDy=0;" edge="1" parent="1" source="4q0jaE6gVoMH41jViN08-103" target="4q0jaE6gVoMH41jViN08-97">
          <mxGeometry relative="1" as="geometry" />
        </mxCell>
        <mxCell id="4q0jaE6gVoMH41jViN08-103" value="Ask which client&#39;s information to remove" style="rounded=0;whiteSpace=wrap;html=1;" vertex="1" parent="1">
          <mxGeometry x="-870" y="150" width="140" height="60" as="geometry" />
        </mxCell>
        <mxCell id="4q0jaE6gVoMH41jViN08-104" style="edgeStyle=orthogonalEdgeStyle;rounded=0;orthogonalLoop=1;jettySize=auto;html=1;exitX=0.5;exitY=1;exitDx=0;exitDy=0;entryX=0.5;entryY=0;entryDx=0;entryDy=0;" edge="1" parent="1" source="4q0jaE6gVoMH41jViN08-105" target="4q0jaE6gVoMH41jViN08-99">
          <mxGeometry relative="1" as="geometry" />
        </mxCell>
        <mxCell id="4q0jaE6gVoMH41jViN08-105" value="Client Name" style="shape=parallelogram;perimeter=parallelogramPerimeter;whiteSpace=wrap;html=1;fixedSize=1;" vertex="1" parent="1">
          <mxGeometry x="-690" y="140" width="120" height="60" as="geometry" />
        </mxCell>
        <mxCell id="4q0jaE6gVoMH41jViN08-110" style="edgeStyle=orthogonalEdgeStyle;rounded=0;orthogonalLoop=1;jettySize=auto;html=1;exitX=1;exitY=0.5;exitDx=0;exitDy=0;" edge="1" parent="1" source="4q0jaE6gVoMH41jViN08-107" target="4q0jaE6gVoMH41jViN08-109">
          <mxGeometry relative="1" as="geometry" />
        </mxCell>
        <mxCell id="4q0jaE6gVoMH41jViN08-107" value="Recite data" style="rounded=0;whiteSpace=wrap;html=1;" vertex="1" parent="1">
          <mxGeometry x="-860" y="340" width="120" height="60" as="geometry" />
        </mxCell>
        <mxCell id="4q0jaE6gVoMH41jViN08-111" style="edgeStyle=orthogonalEdgeStyle;rounded=0;orthogonalLoop=1;jettySize=auto;html=1;exitX=0;exitY=1;exitDx=0;exitDy=0;entryX=0.5;entryY=0;entryDx=0;entryDy=0;" edge="1" parent="1" source="4q0jaE6gVoMH41jViN08-109" target="4q0jaE6gVoMH41jViN08-112">
          <mxGeometry relative="1" as="geometry">
            <mxPoint x="-560.0000000000005" y="369.52941176470586" as="targetPoint" />
            <Array as="points">
              <mxPoint x="-730" y="390" />
              <mxPoint x="-730" y="420" />
              <mxPoint x="-800" y="420" />
            </Array>
          </mxGeometry>
        </mxCell>
        <mxCell id="4q0jaE6gVoMH41jViN08-115" style="edgeStyle=orthogonalEdgeStyle;rounded=0;orthogonalLoop=1;jettySize=auto;html=1;exitX=1;exitY=1;exitDx=0;exitDy=0;entryX=0.5;entryY=0;entryDx=0;entryDy=0;" edge="1" parent="1" source="4q0jaE6gVoMH41jViN08-109" target="4q0jaE6gVoMH41jViN08-114">
          <mxGeometry relative="1" as="geometry" />
        </mxCell>
        <mxCell id="4q0jaE6gVoMH41jViN08-116" value="Yes" style="edgeLabel;html=1;align=center;verticalAlign=middle;resizable=0;points=[];" vertex="1" connectable="0" parent="4q0jaE6gVoMH41jViN08-115">
          <mxGeometry x="-0.2706" y="2" relative="1" as="geometry">
            <mxPoint as="offset" />
          </mxGeometry>
        </mxCell>
        <mxCell id="4q0jaE6gVoMH41jViN08-109" value="Are you&lt;div&gt;sure?&lt;/div&gt;" style="rhombus;whiteSpace=wrap;html=1;" vertex="1" parent="1">
          <mxGeometry x="-670" y="330" width="80" height="80" as="geometry" />
        </mxCell>
        <mxCell id="y5VyylOKGUoKWI22h_aI-1" style="edgeStyle=orthogonalEdgeStyle;rounded=0;orthogonalLoop=1;jettySize=auto;html=1;exitX=1;exitY=0.75;exitDx=0;exitDy=0;entryX=0;entryY=0.5;entryDx=0;entryDy=0;" edge="1" parent="1" source="4q0jaE6gVoMH41jViN08-112" target="4q0jaE6gVoMH41jViN08-50">
          <mxGeometry relative="1" as="geometry">
            <Array as="points">
              <mxPoint x="-710" y="485" />
              <mxPoint x="-710" y="520" />
              <mxPoint x="-540" y="520" />
              <mxPoint x="-540" y="340" />
            </Array>
          </mxGeometry>
        </mxCell>
        <mxCell id="4q0jaE6gVoMH41jViN08-112" value="No" style="rounded=0;whiteSpace=wrap;html=1;" vertex="1" parent="1">
          <mxGeometry x="-860" y="440" width="120" height="60" as="geometry" />
        </mxCell>
        <mxCell id="4q0jaE6gVoMH41jViN08-114" value="Delete Row in csv" style="rounded=0;whiteSpace=wrap;html=1;" vertex="1" parent="1">
          <mxGeometry x="-680" y="440" width="120" height="60" as="geometry" />
        </mxCell>
      </root>
    </mxGraphModel>
  </diagram>
</mxfile>
